<?xml version="1.0" encoding="utf-8"?>
<!-- Generator: Adobe Illustrator 18.1.1, SVG Export Plug-In . SVG Version: 6.00 Build 0)  -->
<!DOCTYPE svg PUBLIC "-//W3C//DTD SVG 1.1//EN" "http://www.w3.org/Graphics/SVG/1.1/DTD/svg11.dtd">
<svg version="1.1" id="Layer_1" xmlns="http://www.w3.org/2000/svg" xmlns:xlink="http://www.w3.org/1999/xlink" x="0px" y="0px"
	 viewBox="0 0 468.7 214.7" enable-background="new 0 0 468.7 214.7" xml:space="preserve">
<circle opacity="0.1" fill="#205182" cx="404.7" cy="164.1" r="41"/>
<rect x="24.3" y="54.1" opacity="0.1" fill="#205182" width="77.3" height="86.6"/>
<g>
	
		<rect x="319.1" y="14.6" fill="#F5F6F6" stroke="#205182" stroke-width="2" stroke-linejoin="round" stroke-miterlimit="10" width="77.9" height="96.6"/>
	<g>
		
			<rect x="329.6" y="48.3" fill="#F5F6F6" stroke="#205182" stroke-width="2" stroke-linejoin="round" stroke-miterlimit="10" width="57" height="41.9"/>
		<rect x="329.6" y="48.3" fill="#59AEE0" stroke="#205182" stroke-width="2" stroke-miterlimit="10" width="57" height="8.1"/>
		
			<line fill="none" stroke="#205182" stroke-width="2" stroke-linejoin="round" stroke-miterlimit="10" x1="329.6" y1="56.5" x2="386.6" y2="56.5"/>
		
			<line fill="none" stroke="#205182" stroke-width="2" stroke-linejoin="round" stroke-miterlimit="10" x1="329.6" y1="65.4" x2="386.6" y2="65.4"/>
		
			<line fill="none" stroke="#205182" stroke-width="2" stroke-linejoin="round" stroke-miterlimit="10" x1="329.6" y1="74.3" x2="386.6" y2="74.3"/>
		
			<line fill="none" stroke="#205182" stroke-width="2" stroke-linejoin="round" stroke-miterlimit="10" x1="329.6" y1="83.2" x2="386.6" y2="83.2"/>
		
			<line fill="none" stroke="#205182" stroke-width="2" stroke-linejoin="round" stroke-miterlimit="10" x1="344.6" y1="47.2" x2="344.6" y2="90.2"/>
		
			<line fill="none" stroke="#205182" stroke-width="2" stroke-linejoin="round" stroke-miterlimit="10" x1="360.7" y1="47.2" x2="360.7" y2="90.2"/>
	</g>
	
		<line fill="none" stroke="#205182" stroke-width="2" stroke-linejoin="round" stroke-miterlimit="10" x1="328.4" y1="29.7" x2="381.9" y2="29.7"/>
	
		<line fill="none" stroke="#205182" stroke-width="2" stroke-linejoin="round" stroke-miterlimit="10" x1="328.4" y1="36.7" x2="370.3" y2="36.7"/>
</g>
<g>
	<polygon fill="#F5F6F6" stroke="#205182" stroke-width="2" stroke-miterlimit="10" points="107,130.8 33,130.8 33,39.2 97,39.2 
		107,49.1 	"/>
	<g>
		
			<rect x="57.3" y="57.4" fill="#F6C341" stroke="#205182" stroke-width="2" stroke-linejoin="round" stroke-miterlimit="10" width="26.5" height="16.6"/>
		
			<line fill="#FFFFFF" stroke="#205182" stroke-width="2" stroke-linejoin="round" stroke-miterlimit="10" x1="70.5" y1="74" x2="70.5" y2="103.1"/>
		<polyline fill="none" stroke="#205182" stroke-width="2" stroke-linejoin="round" stroke-miterlimit="10" points="50.1,96 
			50.1,85 91,85 91,95.6 		"/>
		<rect x="44.6" y="94.9" fill="#59AEE0" stroke="#205182" stroke-width="2" stroke-miterlimit="10" width="9.9" height="9.9"/>
		
			<rect x="85.4" y="94.9" fill="#68AB47" stroke="#205182" stroke-width="2" stroke-linejoin="round" stroke-miterlimit="10" width="9.9" height="9.9"/>
		
			<rect x="65.6" y="102.7" fill="#F79332" stroke="#205182" stroke-width="2" stroke-linecap="round" stroke-linejoin="round" stroke-miterlimit="10" width="9.9" height="9.9"/>
	</g>
	<polygon fill="#3773B1" stroke="#205182" stroke-width="2" stroke-linejoin="round" stroke-miterlimit="10" points="107,49.1 
		97,49.1 97,39.2 	"/>
</g>
<path fill="#F5F6F6" stroke="#205182" stroke-width="2" stroke-miterlimit="10" d="M277.4,191.9H136.8c-1.9,0-3.5-1.6-3.5-3.5V84.3
	h147.6v104.2C280.9,190.4,279.4,191.9,277.4,191.9z"/>
<rect x="133.3" y="84.3" fill="#3773B1" stroke="#205182" stroke-width="2" stroke-miterlimit="10" width="147.8" height="13.3"/>
<rect x="133.3" y="84.3" opacity="0.1" fill="#205182" width="147.8" height="4.4"/>
<path fill="#205182" fill-opacity="0.2" stroke="#205182" stroke-width="2" stroke-linejoin="round" stroke-miterlimit="10" d="
	M280.9,84.3H133.3v-7.9c0-2.4,2-4.4,4.4-4.4h138.9c2.4,0,4.4,2,4.4,4.4V84.3z"/>
<g>
	<path fill="#FFFFFF" d="M148.1,191.8v-84.1c0-1,0.8-1.9,1.9-1.9h71.6c1,0,1.9,0.8,1.9,1.9v84.1H148.1z"/>
	<path fill="#205182" d="M221.5,106.8c0.5,0,0.9,0.4,0.9,0.9v83.1h-73.3v-83.1c0-0.5,0.4-0.9,0.9-0.9H221.5 M221.5,104.8H150
		c-1.6,0-2.9,1.3-2.9,2.9v83.1v2h2h73.3h2v-2v-83.1C224.4,106.1,223.1,104.8,221.5,104.8L221.5,104.8z"/>
</g>
<line fill="none" stroke="#205182" stroke-width="2" stroke-miterlimit="10" x1="234.7" y1="149.7" x2="268.6" y2="149.7"/>
<line fill="none" stroke="#205182" stroke-width="2" stroke-miterlimit="10" x1="234.7" y1="157.2" x2="262.3" y2="157.2"/>
<line fill="none" stroke="#205182" stroke-width="2" stroke-miterlimit="10" x1="234.7" y1="164.8" x2="268.6" y2="164.8"/>
<line fill="none" stroke="#205182" stroke-width="2" stroke-miterlimit="10" x1="149.1" y1="173.7" x2="222.4" y2="173.7"/>
<rect x="236" y="123.4" fill="#F6C341" stroke="#205182" stroke-width="2" stroke-linejoin="round" stroke-miterlimit="10" width="7.5" height="16.3"/>
<rect x="247.9" y="118.4" fill="#68AB47" stroke="#205182" stroke-width="2" stroke-linejoin="round" stroke-miterlimit="10" width="7.5" height="21.3"/>
<rect x="259.8" y="124.6" fill="#59AEE0" stroke="#205182" stroke-width="2" stroke-miterlimit="10" width="7.5" height="15"/>
<polyline fill="none" stroke="#205182" stroke-width="2" stroke-linejoin="round" stroke-miterlimit="10" points="70.4,149.2 
	70.4,160.9 124.3,160.9 "/>
<polyline fill="none" stroke="#205182" stroke-width="2" stroke-linejoin="round" stroke-miterlimit="10" points="311.6,40.3 
	243.7,40.3 243.7,61.4 "/>
<line fill="none" stroke="#205182" stroke-width="2" stroke-miterlimit="10" x1="338" y1="165.6" x2="290" y2="165.6"/>
<g>
	
		<rect x="347.9" y="139.5" fill="#F5F6F6" stroke="#205182" stroke-width="2" stroke-linejoin="round" stroke-miterlimit="10" width="68" height="47.2"/>
	<g>
		<line fill="none" stroke="#205182" stroke-width="2" stroke-miterlimit="10" x1="356.5" y1="151.2" x2="392.5" y2="151.2"/>
		<line fill="none" stroke="#205182" stroke-width="2" stroke-miterlimit="10" x1="356.5" y1="159.1" x2="407.3" y2="159.1"/>
		<line fill="none" stroke="#205182" stroke-width="2" stroke-miterlimit="10" x1="356.5" y1="167" x2="392.5" y2="167"/>
		<line fill="none" stroke="#205182" stroke-width="2" stroke-miterlimit="10" x1="356.5" y1="174.9" x2="399.1" y2="174.9"/>
	</g>
</g>
<polyline fill="none" stroke="#205182" stroke-width="2" stroke-miterlimit="10" points="157.2,121.2 157.2,161 214.2,161 "/>
<polyline fill="none" stroke="#205182" stroke-width="2" stroke-miterlimit="10" points="164.3,121.2 172.9,133.6 184.9,130.2 
	192.7,142.2 202.2,140.9 213,147 "/>
<circle fill="#FFFFFF" stroke="#205182" stroke-width="1.8182" stroke-miterlimit="10" cx="172.7" cy="133.2" r="2.5"/>
<circle fill="#FFFFFF" stroke="#205182" stroke-width="1.8182" stroke-miterlimit="10" cx="184.3" cy="130" r="2.5"/>
<polygon fill="#F6C341" points="213.9,155.6 162.4,155.6 162.4,132.2 171.8,142.8 182,140.6 189.6,150.6 202.6,149.9 "/>
<circle fill="#FFFFFF" stroke="#205182" stroke-width="1.8182" stroke-miterlimit="10" cx="212.3" cy="146.8" r="2.5"/>
<circle fill="#FFFFFF" stroke="#205182" stroke-width="1.8182" stroke-miterlimit="10" cx="203.3" cy="141.1" r="2.5"/>
<circle fill="#FFFFFF" stroke="#205182" stroke-width="1.8182" stroke-miterlimit="10" cx="164.7" cy="121.2" r="2.5"/>
<polygon fill="#59AEE0" points="213.7,155.6 162.4,155.6 162.4,142.2 169.5,147.2 177.6,145.9 184.7,152.9 200.9,152.2 "/>
<circle fill="#FFFFFF" stroke="#205182" stroke-width="1.8182" stroke-miterlimit="10" cx="193.3" cy="141.5" r="2.5"/>
</svg>